<svg width="24" height="24" fill="none" xmlns="http://www.w3.org/2000/svg"><path fill-rule="evenodd" clip-rule="evenodd" d="M13.667 8.333h4.854l2.746 2.747c.453.453.733 1.078.733 1.768v5.485h-2.653A2.492 2.492 0 0117 20a2.491 2.491 0 01-2.347-1.667H9.347A2.492 2.492 0 017 20a2.492 2.492 0 01-2.347-1.667H2V5h11.667v3.333zM17.83 10h-4.164v6.667h.986A2.493 2.493 0 0117 15c1.087 0 2.003.698 2.347 1.667h.986v-3.334L17.831 10zM7 18.333a.833.833 0 11-.001-1.665A.833.833 0 017 18.333zm2.347-1.666H12v-10H3.667v10h.986A2.494 2.494 0 017 15c1.087 0 2.002.698 2.347 1.667zM17 18.333a.833.833 0 11-.001-1.665.833.833 0 01.001 1.665z" fill="#E2017B"/></svg>