<svg width="24" height="24" fill="none" xmlns="http://www.w3.org/2000/svg"><rect width="24" height="24" rx="12" fill="#99BBF3"/><path fill-rule="evenodd" clip-rule="evenodd" d="M13.11 9.556h3.237l1.831 1.83c.302.302.488.719.488 1.179v3.657h-1.768a1.661 1.661 0 01-1.565 1.111 1.66 1.66 0 01-1.565-1.11h-3.537a1.661 1.661 0 01-1.565 1.11 1.661 1.661 0 01-1.564-1.11H5.333v-8.89h7.778v2.223zm2.777 1.11H13.11v4.445h.657c.23-.646.84-1.111 1.565-1.111s1.335.466 1.565 1.111h.657V12.89l-1.668-2.222zm-7.22 5.556a.555.555 0 11-.002-1.11.555.555 0 01.001 1.11zm1.564-1.11H12V8.443H6.444v6.667h.658c.23-.646.84-1.111 1.564-1.111.725 0 1.335.466 1.565 1.111zm5.102 1.11a.555.555 0 110-1.11.555.555 0 010 1.11z" fill="#000" opacity=".405"/></svg>