<svg width="24" height="24" fill="none" xmlns="http://www.w3.org/2000/svg"><rect width="24" height="24" rx="12" fill="#F399CA"/><path fill-rule="evenodd" clip-rule="evenodd" d="M15.58 8.667h1.975c.611 0 1.111.5 1.111 1.111V12h-1.11v5.555c0 .611-.501 1.112-1.112 1.112H7.555c-.61 0-1.11-.5-1.11-1.112V12H5.332V9.778c0-.61.5-1.111 1.111-1.111H8.42a2.201 2.201 0 01-.308-1.111c0-1.227.994-2.223 2.222-2.223.667 0 1.26.301 1.667.767a2.208 2.208 0 011.666-.767c1.228 0 2.223.996 2.223 2.223 0 .407-.118.782-.309 1.11zm-.802-1.111a1.112 1.112 0 00-2.223 0v1.11h1.111c.613 0 1.112-.497 1.112-1.11zm-5.556 0a1.112 1.112 0 012.222 0v1.11h-1.11a1.112 1.112 0 01-1.112-1.11zM11.444 12H7.555v5.555h3.89V12zm5 5.555h-3.889V12h3.89v5.555zm-10-6.666h11.111v-1.11H6.445v1.11z" fill="#000" opacity=".405"/></svg>