<svg width="40" height="40" fill="none" xmlns="http://www.w3.org/2000/svg"><path fill-rule="evenodd" clip-rule="evenodd" d="M20 40c11.046 0 20-8.954 20-20S31.046 0 20 0 0 8.954 0 20s8.954 20 20 20z" fill="#E2017B"/><path d="M25.948 18.4l.993-2.012a.422.422 0 00-.35-.607l-2.237-.145-.145-2.238a.422.422 0 00-.607-.35l-2.008.994-1.244-1.866c-.156-.235-.544-.235-.7 0l-1.244 1.866-2.008-.994a.42.42 0 00-.607.35l-.144 2.239-2.238.144a.42.42 0 00-.35.607l.993 2.01-1.864 1.245a.422.422 0 000 .701l1.865 1.245-.994 2.01a.42.42 0 00.35.607l2.237.144.144 2.24a.422.422 0 00.607.35l2.01-.994 1.243 1.866a.422.422 0 00.7 0l1.244-1.866 2.009.994a.42.42 0 00.607-.35l.144-2.239 2.236-.145a.421.421 0 00.35-.607l-.992-2.01 1.864-1.245a.422.422 0 000-.702L25.948 18.4z" fill="#fff"/></svg>