<svg width="24" height="24" fill="none" xmlns="http://www.w3.org/2000/svg"><path fill-rule="evenodd" clip-rule="evenodd" d="M19 2H5a3 3 0 00-3 3v14a3 3 0 003 3h14a3 3 0 003-3V5a3 3 0 00-3-3zm-3.19 7.78a3.73 3.73 0 01-1 2.5 5.94 5.94 0 013.18 4.62 1 1 0 01-.88 1.1H17a1 1 0 01-1.06-.89 4 4 0 00-7.94 0 1.006 1.006 0 11-2-.22 5.94 5.94 0 013.25-4.61 3.73 3.73 0 01-1-2.5 3.78 3.78 0 117.56 0zm-5.59 0a1.78 1.78 0 103.56 0 1.78 1.78 0 00-3.56 0zM19 20a1 1 0 001-1V5a1 1 0 00-1-1H5a1 1 0 00-1 1v14a1 1 0 001 1h14z" fill="#000"/></svg>