<svg width="126" height="40" fill="none" xmlns="http://www.w3.org/2000/svg"><path fill-rule="evenodd" clip-rule="evenodd" d="M19.201 1.399h7.75c5.774 0 10.483 4.71 10.483 10.483v15.57c0 5.773-4.709 10.482-10.483 10.482H12.304c-5.774 0-10.484-4.709-10.484-10.483V11.882c0-5.774 4.71-10.483 10.484-10.483H19.2z" fill="#fff"/><path fill-rule="evenodd" clip-rule="evenodd" d="M11.83.307h16.499c6.119 0 11.11 4.99 11.11 11.11v16.5c0 6.118-4.991 11.11-11.11 11.11H16.035v-11.91H1.855v5.685A11.027 11.027 0 01.72 27.916v-16.5C.72 5.299 5.71.307 11.83.307zm8.103 34.464a1.321 1.321 0 110 2.642 1.321 1.321 0 010-2.642zm.146-23.267a6.912 6.912 0 019.775 9.775l-9.775 9.776-9.776-9.776a6.912 6.912 0 119.776-9.775z" fill="url(#paint0_linear)"/><path fill-rule="evenodd" clip-rule="evenodd" d="M20.076 31.052v.016l-4.04 4.04v3.918h-4.207c-6.119 0-11.11-4.99-11.11-11.11v-8.25h8.383c.312.58.712 1.124 1.201 1.613l9.773 9.773z" fill="url(#paint1_linear)"/><path d="M52.454 7.323h-3.666V4.646h10.691v2.677H55.83v9.259h-3.376v-9.26zm8.287-2.677h3.376v11.936h-3.376V4.646zm11.237 0c1.08 0 2.018.179 2.814.537.795.358 1.41.87 1.841 1.534.432.665.648 1.447.648 2.345 0 .898-.216 1.677-.648 2.336-.432.66-1.046 1.168-1.841 1.526-.796.358-1.734.537-2.814.537h-2.08v3.12h-3.376V4.647h5.456zm-.205 6.155c.694 0 1.217-.15 1.57-.452.352-.301.528-.73.528-1.287 0-.557-.176-.99-.529-1.296-.352-.307-.875-.46-1.569-.46h-1.875V10.8h1.875zm6.804-.324h4.979v2.49h-4.979v-2.49zm8.884-3.154h-3.666V4.646h10.691v2.677h-3.649v9.259h-3.376v-9.26zm14.135 9.497c-1.261 0-2.395-.267-3.401-.801a6.021 6.021 0 01-2.37-2.217c-.575-.943-.862-2.006-.862-3.188 0-1.183.288-2.246.862-3.19a6.02 6.02 0 012.37-2.216c1.006-.534 2.14-.801 3.401-.801 1.262 0 2.396.267 3.402.801a6.02 6.02 0 012.37 2.217c.574.943.861 2.006.861 3.189 0 1.182-.287 2.245-.861 3.188a6.021 6.021 0 01-2.37 2.217c-1.006.534-2.14.801-3.402.801zm0-2.796c.603 0 1.149-.142 1.637-.426a3.064 3.064 0 001.16-1.203c.284-.517.426-1.11.426-1.781 0-.671-.142-1.265-.426-1.782a3.065 3.065 0 00-1.16-1.202 3.195 3.195 0 00-1.637-.427c-.602 0-1.148.142-1.636.427a3.066 3.066 0 00-1.16 1.202c-.284.517-.426 1.11-.426 1.782 0 .67.142 1.264.426 1.781.284.518.67.918 1.16 1.203a3.195 3.195 0 001.636.426zm13.863-9.378c1.08 0 2.018.179 2.814.537.796.358 1.409.87 1.841 1.534.432.665.648 1.447.648 2.345 0 .898-.216 1.677-.648 2.336-.432.66-1.045 1.168-1.841 1.526-.796.358-1.734.537-2.814.537h-2.08v3.12h-3.376V4.647h5.456zm-.204 6.155c.693 0 1.216-.15 1.568-.452.353-.301.529-.73.529-1.287 0-.557-.176-.99-.529-1.296-.352-.307-.875-.46-1.568-.46h-1.876V10.8h1.876zm8.082 5.934a1.909 1.909 0 01-1.381-.546c-.375-.363-.563-.824-.563-1.38 0-.57.185-1.03.554-1.382.37-.352.833-.529 1.39-.529.568 0 1.035.177 1.398.529.364.352.546.813.546 1.381 0 .557-.185 1.018-.554 1.381-.37.364-.833.546-1.39.546zM54.108 34.926c-.966 0-1.904-.12-2.813-.358-.91-.239-1.649-.557-2.217-.955l1.108-2.49a7.171 7.171 0 001.859.853 7.075 7.075 0 002.08.324c1.296 0 1.944-.324 1.944-.972 0-.34-.185-.594-.554-.758-.37-.165-.964-.339-1.782-.52-.898-.194-1.648-.401-2.25-.623a3.79 3.79 0 01-1.553-1.066c-.432-.489-.648-1.148-.648-1.978 0-.727.2-1.384.597-1.97.398-.585.992-1.048 1.782-1.389.79-.34 1.76-.511 2.907-.511.785 0 1.558.088 2.32.264a7.102 7.102 0 012.012.776l-1.04 2.506c-1.137-.614-2.24-.92-3.309-.92-.67 0-1.16.099-1.466.298-.307.199-.46.458-.46.776s.181.557.545.716c.364.16.95.324 1.756.494.91.194 1.663.401 2.26.623a3.903 3.903 0 011.551 1.057c.438.483.657 1.14.657 1.97 0 .716-.199 1.364-.597 1.943-.398.58-.994 1.043-1.79 1.39s-1.762.52-2.899.52zm18.194-12.175v11.936h-3.376v-4.655h-4.604v4.655h-3.376V22.751h3.376v4.485h4.604v-4.485h3.376zm8.406 12.175c-1.261 0-2.395-.267-3.401-.801a6.024 6.024 0 01-2.37-2.217c-.575-.944-.862-2.006-.862-3.189 0-1.182.287-2.245.861-3.188a6.02 6.02 0 012.37-2.217c1.007-.534 2.14-.801 3.403-.801 1.261 0 2.395.267 3.401.801a6.02 6.02 0 012.37 2.217c.574.943.861 2.006.861 3.188 0 1.183-.287 2.245-.86 3.19a6.023 6.023 0 01-2.37 2.216c-1.007.534-2.14.801-3.403.801zm0-2.796c.603 0 1.148-.142 1.637-.427a3.067 3.067 0 001.16-1.202c.284-.517.426-1.11.426-1.782 0-.67-.142-1.264-.426-1.782a3.066 3.066 0 00-1.16-1.202 3.197 3.197 0 00-1.636-.426c-.603 0-1.149.142-1.638.426a3.065 3.065 0 00-1.159 1.203c-.284.517-.426 1.11-.426 1.781 0 .671.142 1.265.426 1.782.284.517.67.918 1.16 1.202a3.197 3.197 0 001.636.427zm13.863-9.379c1.08 0 2.018.18 2.814.537.796.358 1.41.87 1.841 1.535.432.665.648 1.447.648 2.345 0 .898-.216 1.676-.648 2.336-.432.66-1.045 1.168-1.841 1.526-.796.358-1.734.537-2.814.537h-2.08v3.12h-3.376V22.751h5.456zm-.204 6.156c.693 0 1.216-.15 1.568-.452.353-.301.529-.73.529-1.287 0-.557-.176-.99-.529-1.296-.352-.307-.875-.46-1.568-.46H92.49v3.495h1.876z" fill="#000"/><defs><linearGradient id="paint0_linear" x1=".719" y1="19.666" x2="39.439" y2="19.666" gradientUnits="userSpaceOnUse"><stop stop-color="#E2017B"/><stop offset="1" stop-color="#FA2F9F"/></linearGradient><linearGradient id="paint1_linear" x1="6.255" y1="20.598" x2="14.54" y2="38.095" gradientUnits="userSpaceOnUse"><stop stop-color="#E2017B"/><stop offset="1" stop-color="#AB005E"/></linearGradient></defs></svg>