<svg width="22" height="20" fill="none" xmlns="http://www.w3.org/2000/svg"><path opacity=".3" d="M1.231 18.745a4.156 4.156 0 005.952 0l9.523-9.707c.479-.483.743-1.13.745-1.82.004-1.379-1.179-2.584-2.531-2.58a2.482 2.482 0 00-1.788.762l-8.33 8.491a.87.87 0 000 1.214.83.83 0 001.19 0l8.333-8.495a.833.833 0 01.6-.256c.45 0 .842.4.842.86a.86.86 0 01-.249.607l-9.526 9.71a2.49 2.49 0 01-3.57 0 2.612 2.612 0 010-3.64L13.134 2.97a4.157 4.157 0 015.952 0c1.64 1.673 1.64 4.395 0 6.068l-8.333 8.494a.87.87 0 000 1.213.83.83 0 001.19 0l8.333-8.494c2.297-2.342 2.297-6.153 0-8.494a5.82 5.82 0 00-8.333 0L1.231 12.678c-1.641 1.673-1.641 4.394 0 6.067z" fill="#292F4C"/></svg>