<svg width="320" height="88" fill="none" xmlns="http://www.w3.org/2000/svg"><path fill-rule="evenodd" clip-rule="evenodd" d="M137.584 66.96H118V22.224h17.408c3.029 0 5.643.363 7.84 1.088 2.197.725 3.851 1.707 4.96 2.944 2.005 2.304 3.008 4.907 3.008 7.808 0 3.499-1.131 6.101-3.392 7.808-.768.597-1.301.97-1.6 1.12-.299.15-.832.395-1.6.736 2.773.597 4.981 1.845 6.624 3.744 1.643 1.899 2.464 4.256 2.464 7.072 0 3.115-1.067 5.867-3.2 8.256-2.475 2.773-6.784 4.16-12.928 4.16zm-9.6-26.624h4.736c2.773 0 4.832-.299 6.176-.896 1.344-.597 2.016-1.888 2.016-3.872s-.619-3.296-1.856-3.936c-1.237-.64-3.328-.96-6.272-.96h-4.8v9.664zm0 18.176h6.848c2.859 0 5.003-.352 6.432-1.056 1.429-.704 2.144-2.09 2.144-4.16 0-2.07-.757-3.435-2.272-4.096-1.515-.661-3.936-.992-7.264-.992h-5.888v10.304zm40.752 8.448h-9.6V19.472h9.6V66.96zm14.768-17.216c0 2.816.8 5.11 2.4 6.88 1.6 1.77 3.648 2.656 6.144 2.656s4.544-.885 6.144-2.656c1.6-1.77 2.4-4.064 2.4-6.88s-.8-5.12-2.4-6.912c-1.6-1.792-3.648-2.688-6.144-2.688s-4.544.896-6.144 2.688c-1.6 1.792-2.4 4.096-2.4 6.912zm26.752 0c0 4.992-1.728 9.195-5.184 12.608-3.456 3.413-7.797 5.12-13.024 5.12-5.227 0-9.568-1.707-13.024-5.12-3.456-3.413-5.184-7.616-5.184-12.608 0-4.992 1.728-9.205 5.184-12.64 3.456-3.435 7.797-5.152 13.024-5.152 5.227 0 9.568 1.717 13.024 5.152 3.456 3.435 5.184 7.648 5.184 12.64zM182.48 26.128c-.896-.939-1.344-2.07-1.344-3.392 0-1.323.459-2.443 1.376-3.36.917-.917 2.037-1.376 3.36-1.376s2.443.459 3.36 1.376c.917.917 1.376 2.037 1.376 3.36s-.459 2.443-1.376 3.36c-.917.917-2.037 1.376-3.36 1.376s-2.453-.448-3.392-1.344zm12.352 0c-.896-.939-1.344-2.07-1.344-3.392 0-1.323.459-2.443 1.376-3.36.917-.917 2.037-1.376 3.36-1.376s2.443.459 3.36 1.376c.917.917 1.376 2.037 1.376 3.36s-.459 2.443-1.376 3.36c-.917.917-2.037 1.376-3.36 1.376s-2.453-.448-3.392-1.344zm36.976 32.832c3.2 0 6.08-1.6 8.64-4.8l5.696 6.4c-4.437 4.608-9.237 6.912-14.4 6.912s-9.525-1.632-13.088-4.896c-3.563-3.264-5.344-7.53-5.344-12.8 0-5.27 1.803-9.557 5.408-12.864 3.605-3.307 7.883-4.96 12.832-4.96 2.475 0 4.981.512 7.52 1.536a19.011 19.011 0 016.688 4.544l-4.992 6.528a11.341 11.341 0 00-4.064-3.072c-1.6-.725-3.189-1.088-4.768-1.088-2.517 0-4.683.821-6.496 2.464-1.813 1.643-2.72 3.925-2.72 6.848s.907 5.195 2.72 6.816c1.813 1.621 3.936 2.432 6.368 2.432zm28.336 8h-9.6V19.472h9.6v24.384l10.688-11.392h12.096l-13.12 13.952L283.44 66.96h-11.392l-8.768-13.184-3.136 3.264v9.92zm56.304-4.992c-3.883 3.67-8.437 5.504-13.664 5.504s-9.547-1.61-12.96-4.832c-3.413-3.221-5.12-7.541-5.12-12.96 0-5.419 1.739-9.728 5.216-12.928 3.477-3.2 7.584-4.8 12.32-4.8 4.736 0 8.757 1.43 12.064 4.288 3.307 2.859 4.96 6.784 4.96 11.776v5.12h-25.088c.299 1.877 1.28 3.413 2.944 4.608 1.664 1.195 3.541 1.792 5.632 1.792 3.371 0 6.144-1.13 8.32-3.392l5.376 5.824zm-6.912-15.68c-.213-2.048-.981-3.627-2.304-4.736-1.323-1.11-2.933-1.664-4.832-1.664s-3.637.576-5.216 1.728c-1.579 1.152-2.496 2.71-2.752 4.672h15.104z" fill="#1C1C1C"/><path fill-rule="evenodd" clip-rule="evenodd" d="M44 88c24.3 0 44-19.7 44-44S68.3 0 44 0 0 19.7 0 44s19.7 44 44 44z" fill="#2E7CD9"/><path fill-rule="evenodd" clip-rule="evenodd" d="M48 24h14a2 2 0 012 2v20a2 2 0 01-2 2H48a2 2 0 01-2-2V26a2 2 0 012-2z" fill="#fff"/><path fill-rule="evenodd" clip-rule="evenodd" d="M48 52h14a2 2 0 012 2v9a2 2 0 01-2 2H48a2 2 0 01-2-2v-9a2 2 0 012-2z" fill="#fff" fill-opacity=".6"/><path fill-rule="evenodd" clip-rule="evenodd" d="M26 24h14a2 2 0 012 2v7a2 2 0 01-2 2H26a2 2 0 01-2-2v-7a2 2 0 012-2z" fill="#fff"/><path fill-rule="evenodd" clip-rule="evenodd" d="M26 54h14a2 2 0 012 2v7a2 2 0 01-2 2H26a2 2 0 01-2-2v-7a2 2 0 012-2z" fill="#fff" fill-opacity=".2"/><path fill-rule="evenodd" clip-rule="evenodd" d="M26 39h14a2 2 0 012 2v7a2 2 0 01-2 2H26a2 2 0 01-2-2v-7a2 2 0 012-2z" fill="#fff" fill-opacity=".6"/></svg>