<svg width="14" height="14" fill="none" xmlns="http://www.w3.org/2000/svg"><path fill-rule="evenodd" clip-rule="evenodd" d="M7 .28a6.72 6.72 0 10-.001 13.44A6.72 6.72 0 007 .28zm.627 2.426c.655 0 .848.38.848.815 0 .543-.434 1.044-1.175 1.044-.62 0-.916-.311-.898-.827 0-.435.364-1.032 1.225-1.032zM5.487 9.56c-.313 1.194.014 1.466.462 1.466.447 0 1.601-.407 2.66-1.466l-.253-.34c-.433.34-.872.503-1.007.503-.104 0-.149-.135-.045-.529l.588-2.226c.224-.815.15-1.344-.298-1.344-.536 0-1.788.534-2.876 1.443l.223.366c.343-.231.925-.465 1.059-.465.103 0 .089.136 0 .475L5.487 9.56z" fill="#7E7E7E"/></svg>