<svg width="24" height="24" fill="none" xmlns="http://www.w3.org/2000/svg"><path fill-rule="evenodd" clip-rule="evenodd" d="M16.713 7H9.356v9.778h1.84a2.145 2.145 0 014.291 0h1.226V14.41h2.223a.382.382 0 000-.764h-2.223V12.5h4.522a.382.382 0 100-.764h-4.522v-1.528h-4.676a.382.382 0 010-.764h9.581a.382.382 0 000-.763h-4.905V7zM4.198 15.913a1.22 1.22 0 000 1.729 1.229 1.229 0 001.734 0 1.22 1.22 0 000-1.729 1.229 1.229 0 00-1.734 0zm7.917.865c0 .675.548 1.222 1.226 1.222.678 0 1.226-.547 1.226-1.222 0-.675-.548-1.222-1.226-1.222-.678 0-1.226.547-1.226 1.222zm-9.576-5.32l2.02-2.014H8.13v7.334h-.92a2.145 2.145 0 00-4.29 0H2v-4.023c0-.506.206-.965.539-1.296z" fill="#E2017B"/></svg>