<svg width="36" height="36" fill="none" xmlns="http://www.w3.org/2000/svg"><path fill-rule="evenodd" clip-rule="evenodd" d="M18 36c9.941 0 18-8.059 18-18S27.941 0 18 0 0 8.059 0 18s8.059 18 18 18z" fill="#E0E0E0"/><path fill-rule="evenodd" clip-rule="evenodd" d="M24.672 10.5H11.328a.828.828 0 00-.828.828v13.345c0 .456.37.827.828.827h7.184v-5.809h-1.954v-2.264h1.954v-1.669c0-1.937 1.184-2.992 2.912-2.992.829 0 1.54.062 1.747.089v2.025h-1.198c-.94 0-1.122.447-1.122 1.102v1.446h2.242l-.292 2.264h-1.95V25.5h3.822c.456 0 .827-.37.827-.828V11.328a.828.828 0 00-.828-.828z" fill="#969696"/></svg>