<svg width="36" height="36" fill="none" xmlns="http://www.w3.org/2000/svg"><path fill-rule="evenodd" clip-rule="evenodd" d="M18 36c9.941 0 18-8.059 18-18S27.941 0 18 0 0 8.059 0 18s8.059 18 18 18z" fill="#E0E0E0"/><path fill-rule="evenodd" clip-rule="evenodd" d="M18 10.5c-2.037 0-2.292.009-3.092.045-2.724.125-4.237 1.636-4.362 4.363-.037.8-.046 1.055-.046 3.092s.009 2.293.045 3.093c.125 2.723 1.636 4.237 4.363 4.362.8.036 1.055.045 3.092.045s2.293-.009 3.093-.045c2.72-.125 4.238-1.636 4.361-4.362.037-.8.046-1.056.046-3.093s-.009-2.292-.045-3.092c-.122-2.721-1.636-4.237-4.362-4.362-.8-.037-1.056-.046-3.093-.046zm0 3.649a3.851 3.851 0 100 7.702 3.851 3.851 0 000-7.702zm0 6.351a2.5 2.5 0 110-5 2.5 2.5 0 010 5zm4.004-7.403a.9.9 0 100 1.8.9.9 0 000-1.8z" fill="#969696"/></svg>