<svg width="24" height="24" fill="none" xmlns="http://www.w3.org/2000/svg"><path fill-rule="evenodd" clip-rule="evenodd" d="M15.486 8.75h-2.179c.211-.37.34-.792.34-1.25 0-1.38-1.097-2.5-2.452-2.5-.736 0-1.39.338-1.839.862A2.418 2.418 0 007.517 5C6.163 5 5.065 6.12 5.065 7.5c0 .458.13.88.34 1.25H3.226C2.552 8.75 2 9.313 2 10v1.25h14.713v-.703h2.222a.383.383 0 00.383-.383v-.015a.383.383 0 00-.383-.383H16.69a1.238 1.238 0 00-1.204-1.016zm-6.743 0H7.517A1.24 1.24 0 016.291 7.5c0-.69.55-1.25 1.226-1.25.676 0 1.226.56 1.226 1.25v1.25zm1.226 0h1.226a1.24 1.24 0 001.226-1.25c0-.69-.55-1.25-1.226-1.25A1.24 1.24 0 009.97 7.5v1.25zm0 11.25h4.292c.674 0 1.226-.563 1.226-1.25v-1.172h6.13a.383.383 0 00.383-.383v-.015a.383.383 0 00-.383-.383h-6.13v-1.563h-4.598a.383.383 0 01-.383-.383v-.015c0-.211.171-.383.383-.383h6.896a.383.383 0 00.384-.383v-.015a.383.383 0 00-.384-.383h-2.299V12.5H9.97V20zm-5.517 0c-.674 0-1.226-.563-1.226-1.25V12.5h5.517V20H4.452z" fill="#E2017B"/></svg>