<svg width="51" height="32" fill="none" xmlns="http://www.w3.org/2000/svg"><mask id="a" maskUnits="userSpaceOnUse" x="0" y="0" width="26" height="32"><path fill-rule="evenodd" clip-rule="evenodd" d="M0 .204h25.465v31.781H0V.204z" fill="#fff"/></mask><g mask="url(#a)"><path fill-rule="evenodd" clip-rule="evenodd" d="M19.497 16.095c0-5.052 2.334-9.55 5.968-12.46A15.537 15.537 0 0015.716.204C7.036.204 0 7.318 0 16.094c0 8.777 7.036 15.891 15.716 15.891 3.684 0 7.069-1.285 9.749-3.43a15.922 15.922 0 01-5.968-12.46z" fill="#585757"/></g><path fill-rule="evenodd" clip-rule="evenodd" d="M19.497 16.095c0 5.051 2.334 9.549 5.968 12.46a15.923 15.923 0 005.968-12.46c0-5.052-2.334-9.55-5.968-12.46a15.922 15.922 0 00-5.968 12.46z" fill="#969696"/><mask id="b" maskUnits="userSpaceOnUse" x="25" y="0" width="26" height="32"><path fill-rule="evenodd" clip-rule="evenodd" d="M25.465.204h25.464v31.781H25.465V.204z" fill="#fff"/></mask><g mask="url(#b)"><path fill-rule="evenodd" clip-rule="evenodd" d="M35.213.204a15.536 15.536 0 00-9.748 3.43 15.923 15.923 0 015.967 12.46 15.92 15.92 0 01-5.967 12.46 15.536 15.536 0 009.748 3.431c8.68 0 15.716-7.114 15.716-15.89C50.93 7.318 43.893.204 35.213.204z" fill="#EEE"/></g></svg>