<svg width="24" height="24" fill="none" xmlns="http://www.w3.org/2000/svg"><path fill-rule="evenodd" clip-rule="evenodd" d="M12 10a5 5 0 10-10 0 4.999 4.999 0 003.823 4.855l-.698 1.395h1.25c0 1.082-.422 2.1-1.188 2.866l.884.884a5.286 5.286 0 001.554-3.75h1.25l-.698-1.395A4.997 4.997 0 0012 10zm4.649.156a4.378 4.378 0 00-3.922-2.651A6.22 6.22 0 0113.25 10a6.252 6.252 0 01-3.168 5.43c.41.295.879.51 1.378.65l-.71 1.42H12c0 .976.395 1.86 1.036 2.5l.884-.884a2.272 2.272 0 01-.67-1.616h1.25l-.706-1.413a4.381 4.381 0 002.04-1.243h3.041a.39.39 0 000-.781h-2.462a4.343 4.343 0 00.584-2.344h-2.419a.39.39 0 010-.781h7.032a.39.39 0 000-.782h-4.96z" fill="#E2017B"/></svg>