<svg width="24" height="24" fill="none" xmlns="http://www.w3.org/2000/svg"><path fill-rule="evenodd" clip-rule="evenodd" d="M7.311 6h9.295c.73 0 1.328.585 1.328 1.3H5.984c0-.715.597-1.3 1.327-1.3zm1.992 5.851a1.348 1.348 0 011.877 0 1.28 1.28 0 010 1.839l-4.647 4.548A2.676 2.676 0 014.656 19H2v-8.023L4.656 9.9v6.503l4.647-4.552zm-3.32 1.413V8.6h11.95v1.056h3.66a.406.406 0 110 .813h-7.485a.406.406 0 000 .812h3.826v2.52c0 .111-.015.22-.043.324h1.628a.406.406 0 010 .813h-2.272c-.19.103-.41.162-.641.162h-4.989l.502-.491a2.558 2.558 0 00-.001-3.68 2.667 2.667 0 00-1.876-.76c-.71 0-1.377.272-1.878.763l-2.38 2.332zm8.3.536h2.323v-1.3h-2.324v1.3z" fill="#E2017B"/></svg>