<svg width="97" height="26" fill="none" xmlns="http://www.w3.org/2000/svg"><path fill-rule="evenodd" clip-rule="evenodd" d="M66.248 7.298c-.41 2.697-2.47 2.697-4.462 2.697h-1.134l.795-5.035a.626.626 0 01.619-.529h.52c1.355 0 2.636 0 3.297.773.395.462.514 1.147.365 2.094zM65.381.262h-7.513c-.514 0-.951.374-1.031.881l-3.038 19.265c-.06.38.233.724.618.724h3.855a.73.73 0 00.722-.617l.861-5.462c.08-.507.518-.881 1.031-.881h2.378c4.949 0 7.805-2.395 8.551-7.142.336-2.075.014-3.707-.959-4.849C69.788.926 67.895.262 65.382.262zm17.442 13.952c-.347 2.056-1.98 3.436-4.06 3.436-1.044 0-1.88-.336-2.416-.971-.533-.63-.733-1.528-.564-2.528.324-2.037 1.982-3.461 4.032-3.461 1.021 0 1.85.339 2.398.98.551.646.768 1.55.61 2.544zm5.014-7.002h-3.598a.626.626 0 00-.618.529l-.159 1.005-.251-.364c-.78-1.131-2.516-1.509-4.25-1.509-3.974 0-7.37 3.012-8.03 7.237-.344 2.107.144 4.12 1.339 5.526 1.098 1.292 2.665 1.83 4.531 1.83 3.204 0 4.98-2.059 4.98-2.059l-.16 1c-.06.38.234.725.619.725h3.24c.513 0 .95-.374 1.03-.881l1.945-12.316a.626.626 0 00-.618-.723zm1.156 13.196L92.077.791a.626.626 0 01.618-.529h3.471c.385 0 .679.344.619.724l-3.04 19.265c-.08.507-.518.88-1.032.88h-3.101a.626.626 0 01-.619-.723z" fill="#969696"/><path fill-rule="evenodd" clip-rule="evenodd" d="M12.662 7.298c-.41 2.697-2.47 2.697-4.462 2.697H7.066l.795-5.035a.627.627 0 01.619-.529H9c1.355 0 2.637 0 3.297.773.395.462.515 1.147.365 2.094zM11.795.262H4.282c-.514 0-.95.374-1.03.881L.211 20.408a.628.628 0 00.62.724h3.587c.513 0 .95-.374 1.031-.881l.82-5.198c.08-.507.517-.881 1.03-.881h2.378c4.949 0 7.805-2.395 8.552-7.142.335-2.075.013-3.707-.96-4.849C16.203.926 14.31.262 11.796.262zm17.442 13.952c-.347 2.056-1.98 3.436-4.06 3.436-1.044 0-1.88-.336-2.416-.971-.532-.63-.732-1.528-.564-2.528.324-2.037 1.982-3.461 4.032-3.461 1.021 0 1.85.339 2.398.98.552.646.768 1.55.61 2.544zm5.014-7.002h-3.598a.626.626 0 00-.618.529l-.159 1.005-.251-.364c-.78-1.131-2.515-1.509-4.25-1.509-3.974 0-7.37 3.012-8.03 7.237-.344 2.107.144 4.12 1.34 5.526 1.097 1.292 2.664 1.83 4.53 1.83 3.204 0 4.98-2.059 4.98-2.059l-.16 1c-.06.38.234.725.619.725h3.24c.513 0 .95-.374 1.03-.881L34.87 7.935a.626.626 0 00-.62-.723zm15.544 0h3.616c.506 0 .803.568.515.983L41.901 25.551a1.045 1.045 0 01-.858.449H37.43a.626.626 0 01-.51-.988l3.744-5.285L36.683 8.04a.626.626 0 01.593-.828h3.554c.462 0 .868.303 1 .744l2.114 7.06 4.988-7.347c.194-.286.518-.457.863-.457z" fill="#585757"/></svg>