<svg width="16" height="14" fill="none" xmlns="http://www.w3.org/2000/svg"><path opacity=".3" fill-rule="evenodd" clip-rule="evenodd" d="M13.83 4.652a.53.53 0 01.17.394.532.532 0 01-.17.393l-3.544 3.472v.612c0 .245.116.417.348.516a.633.633 0 00.223.043c.16 0 .295-.055.402-.166L15.83 5.44a.533.533 0 00.17-.393.533.533 0 00-.17-.394L11.26.175c-.173-.18-.38-.221-.625-.122-.232.099-.348.27-.348.516v.603l3.544 3.48zM6.857 2.86c-2.446.163-4.229.807-5.348 1.932C.503 5.801 0 7.284 0 9.242c0 .339.05.728.152 1.168.101.44.216.843.344 1.207.128.364.27.729.428 1.093.158.364.278.628.362.792l.178.35c.048.098.131.148.25.148a.274.274 0 00.08-.009c.15-.046.218-.145.206-.297-.256-2.332.06-3.979.946-4.94.381-.415.889-.737 1.523-.967.634-.23 1.43-.383 2.388-.459v2.195c0 .245.116.417.348.516a.638.638 0 00.224.043c.16 0 .294-.055.401-.166l4.572-4.477a.532.532 0 00.17-.393.532.532 0 00-.17-.394L7.83.175c-.173-.18-.381-.221-.625-.122-.233.099-.349.27-.349.516v2.29z" fill="#292F4C"/></svg>