<svg width="24" height="24" fill="none" xmlns="http://www.w3.org/2000/svg"><path fill-rule="evenodd" clip-rule="evenodd" d="M2 8.966C2 5.125 5.174 2 9.076 2c3.902 0 7.076 3.125 7.076 6.966a6.876 6.876 0 01-1.813 4.65l7.484 7.367a.59.59 0 010 .842.608.608 0 01-.856 0l-7.511-7.394a7.11 7.11 0 01-4.38 1.5C5.174 15.932 2 12.808 2 8.967zm7.076-5.774c-3.234 0-5.865 2.59-5.865 5.774s2.63 5.774 5.865 5.774a5.89 5.89 0 003.883-1.457.595.595 0 01.23-.206 5.71 5.71 0 001.753-4.11c0-3.185-2.631-5.775-5.866-5.775z" fill="#000"/></svg>