<svg width="100" height="100" fill="none" xmlns="http://www.w3.org/2000/svg"><g filter="url(#filter0_d)"><rect x="24" y="18" width="52" height="52" rx="26" fill="#E2017B"/><mask id="a" maskUnits="userSpaceOnUse" x="24" y="18" width="52" height="52"><rect x="24" y="18" width="52" height="52" rx="26" fill="#fff"/></mask><g mask="url(#a)"><path d="M59.435 42.778l-8.073-8.24c-.35-.359-.826-.538-1.35-.538h-.024c-.524 0-1 .179-1.35.537l-8.073 8.241a1.753 1.753 0 000 2.578c.753.71 1.97.71 2.723 0l4.784-4.953v12.77c0 1.01.862 1.827 1.928 1.827 1.084 0 1.928-.818 1.928-1.826v-12.77l4.784 4.952c.753.71 1.97.71 2.723 0a1.753 1.753 0 000-2.578z" fill="#fff"/></g></g><defs><filter id="filter0_d" x="0" y="0" width="100" height="100" filterUnits="userSpaceOnUse" color-interpolation-filters="sRGB"><feFlood flood-opacity="0" result="BackgroundImageFix"/><feColorMatrix in="SourceAlpha" values="0 0 0 0 0 0 0 0 0 0 0 0 0 0 0 0 0 0 127 0"/><feOffset dy="6"/><feGaussianBlur stdDeviation="12"/><feColorMatrix values="0 0 0 0 0 0 0 0 0 0 0 0 0 0 0 0 0 0 0.18 0"/><feBlend in2="BackgroundImageFix" result="effect1_dropShadow"/><feBlend in="SourceGraphic" in2="effect1_dropShadow" result="shape"/></filter></defs></svg>