<svg width="80" height="26" fill="none" xmlns="http://www.w3.org/2000/svg"><path fill-rule="evenodd" clip-rule="evenodd" d="M50.62.032L50.74 0h3.024c.24.045.481.087.722.13.556.098 1.111.196 1.66.323.497.115.986.262 1.493.413.226.068.456.137.692.204l-1.128 5.303c-.314-.092-.623-.19-.93-.285-.679-.213-1.347-.422-2.029-.573-1.353-.3-2.739-.415-4.093-.036a4.14 4.14 0 00-1.54.824c-.743.64-.753 1.562-.043 2.234.489.464 1.069.844 1.649 1.195.52.314 1.05.612 1.58.91.813.458 1.626.915 2.402 1.431 1.508 1.003 2.608 2.381 2.839 4.245.408 3.296-.804 5.892-3.557 7.729-1.731 1.155-3.69 1.671-5.732 1.862-.645.06-1.287.09-1.926.091h-.013c-2.18 0-4.325-.35-6.428-1.045a7.094 7.094 0 01-.484-.186l-.054-.023c-.035-.014-.067-.036-.108-.063l-.073-.049 1.166-5.492.437.195c.306.137.605.271.909.394 2.127.862 4.325 1.257 6.602.828a4.679 4.679 0 001.699-.714c1.09-.735 1.194-2.115.202-2.978-.515-.448-1.112-.803-1.707-1.157a43.778 43.778 0 01-.473-.285c-.411-.252-.832-.49-1.252-.73-.766-.434-1.53-.869-2.24-1.383-1.408-1.02-2.427-2.38-2.62-4.188-.29-2.707.709-4.905 2.775-6.612C45.958 1.025 48.092.366 50.366.089c.086-.01.17-.034.255-.057zm15.761 2.485c.608-1.459 1.52-2.07 3.088-2.07h5.287l.169.79.002.01v.001c.118.55.235 1.095.348 1.64l1.423 6.86.002.011.003.012c.904 4.362 1.808 8.724 2.716 13.085.121.583.258 1.163.394 1.743.063.268.126.536.187.804v.179h-6.022l-.193-.916a64.42 64.42 0 01-.45-2.242c-.078-.436-.217-.605-.7-.599-2.416.032-4.831.024-7.246.005-.366-.003-.511.118-.622.453a79.354 79.354 0 01-1.07 2.98c-.05.134-.217.318-.332.319-1.805.015-3.61.015-5.45.014h-1.144l.378-.918.002-.005c.272-.66.538-1.306.807-1.951l6.458-15.493 1.964-4.712zM70.21 7.45l-.078-.016-3.322 9.217h5.308L70.21 7.45zm-52.844 8.694l-.363.921c-.026.067-.06.13-.107.212l-.084.153-.055-.273c-.031-.15-.058-.28-.082-.408l-.764-4.081v-.001c-.602-3.218-1.203-6.436-1.814-9.652-.307-1.617-1.48-2.566-3.103-2.566H.723C.01.447.01.447 0 1.201l.078.02c.056.014.113.029.17.042 1.918.458 3.797 1.021 5.608 1.823 1.129.5 1.731 1.316 2.032 2.509a2812.85 2812.85 0 003.117 12.212v.001c.624 2.428 1.247 4.856 1.867 7.285.096.374.23.52.646.514 1.956-.027 3.912-.02 5.868-.004.358.003.538-.09.685-.445 2.494-6.012 4.998-12.02 7.503-18.027l.002-.003 1.785-4.283.65-1.572.333-.806-.17-.01a4.79 4.79 0 00-.268-.01h-1.651C26.818.45 25.382.452 23.947.44h-.012c-.31 0-.45.102-.564.394a8166.82 8166.82 0 01-6.006 15.31zm10.385 9.453L33.096.474h6.487l-.248 1.172a2835.565 2835.565 0 01-1.452 6.834 6778.044 6778.044 0 00-3.498 16.506c-.1.48-.27.634-.766.624a170.181 170.181 0 00-3.874-.017l-1.461.003h-.533z" fill="#969696"/></svg>