<svg width="32" height="32" fill="none" xmlns="http://www.w3.org/2000/svg"><path fill-rule="evenodd" clip-rule="evenodd" d="M29.334 11.514a3.81 3.81 0 00-1.116-2.694L23.18 3.782a3.81 3.81 0 00-2.694-1.115h-8.971A3.81 3.81 0 008.82 3.782L3.783 8.82a3.81 3.81 0 00-1.116 2.694v8.972c0 1.01.401 1.979 1.116 2.693l5.038 5.038a3.81 3.81 0 002.694 1.116h8.971a3.81 3.81 0 002.694-1.116l5.038-5.038a3.81 3.81 0 001.116-2.693v-8.972zm-10.871 9.642a1.905 1.905 0 002.694-2.694L18.694 16l2.463-2.463a1.905 1.905 0 10-2.694-2.694L16 13.306l-2.462-2.463a1.905 1.905 0 00-2.694 2.694L13.307 16l-2.463 2.462a1.905 1.905 0 002.694 2.694L16 18.694l2.463 2.462z" fill="#fff" opacity=".791"/></svg>