<svg width="34" height="22" fill="none" xmlns="http://www.w3.org/2000/svg"><path d="M6.849 0h8.304c1.16 0 1.88.983 1.61 2.192l-3.866 17.264c-.273 1.205-1.434 2.189-2.594 2.189H2c-1.158 0-1.88-.984-1.61-2.189L4.258 2.192C4.528.982 5.688 0 6.848 0" fill="#E21836"/><path d="M14.463 0h9.55c1.159 0 .636.983.363 2.192L20.51 19.456c-.27 1.205-.186 2.189-1.348 2.189h-9.55c-1.161 0-1.88-.984-1.607-2.189l3.866-17.264C12.145.982 13.303 0 14.463 0" fill="#00447C"/><path d="M23.634 0h8.305c1.16 0 1.881.983 1.609 2.192l-3.866 17.264c-.273 1.205-1.434 2.189-2.595 2.189h-8.3c-1.162 0-1.883-.984-1.61-2.189l3.866-17.264C21.313.982 22.473 0 23.634 0" fill="#007B84"/><path fill-rule="evenodd" clip-rule="evenodd" d="M21.513 10.73l.215-1.082s.156-.679.165-.704c0 0 .05-.07.098-.098h.073c.68 0 1.447 0 2.049-.46.41-.316.69-.783.814-1.35a2.07 2.07 0 00.057-.469c0-.217-.042-.432-.163-.6-.307-.446-.918-.454-1.624-.458l-.348.004c-.902.011-1.265.008-1.413-.01l-.037.19-.323 1.56-.81 3.472c.788-.01 1.111-.01 1.247.005zM9.017 5.533c-.854.009-1.106 0-1.187-.02-.031.153-.607 2.918-.609 2.92-.124.56-.214.958-.52 1.215a.906.906 0 01-.614.222c-.379 0-.6-.195-.636-.566l-.007-.128.115-.753s.605-2.52.713-2.852a.25.25 0 00.009-.038c-1.177.01-1.386 0-1.4-.02-.008.027-.037.183-.037.183l-.618 2.84-.053.24-.103.788c0 .234.044.425.132.586.282.511 1.084.588 1.538.588.585 0 1.134-.13 1.505-.365.643-.395.812-1.013.962-1.562V8.81l.07-.281S8.9 5.91 9.006 5.57v-.007a.099.099 0 01.01-.031zm2.12 2.11c-.15 0-.425.038-.672.164a3.507 3.507 0 00-.202.12l-.061.038.08-.303-.044-.05c-.489.102-.623.122-1.032.182l-.09.013-.041.028c-.056.484-.106.847-.314 1.798-.079.35-.161.704-.244 1.053l.023.044c.495-.027.645-.027 1.075-.02l.035-.039.037-.201c.03-.164.057-.317.146-.748l.043-.216c.061-.306.144-.724.19-.896.108-.052.214-.103.315-.103.236 0 .213.209.203.3v.006c-.01.146-.098.624-.189 1.034l-.06.265c-.021.102-.044.202-.067.301l-.062.279.018.038c.488-.027.636-.027 1.053-.02l.049-.039c.075-.454.097-.576.23-1.238l.068-.304c.13-.596.196-.898.097-1.143-.104-.276-.355-.343-.585-.343zm2.282.641l.086-.017.01.023.007.025a46.031 46.031 0 00-.145.62l-.065.29-.074.33-.089.412c-.032.15-.051.237-.064.307-.014.067-.021.116-.033.194l-.031.203-.024.02-.022.02c-.082 0-.154-.002-.22-.003a7.061 7.061 0 00-.353.001c-.143.002-.284.008-.485.018l-.06.003-.012-.02-.015-.024c.056-.22.09-.314.118-.394l.012-.034a3.02 3.02 0 00.119-.433c.073-.333.118-.565.148-.769.025-.145.042-.274.06-.41.005-.048.012-.098.019-.149l.018-.015.02-.019a20.13 20.13 0 001.075-.179zm.091-.858c-.235-.144-.649-.098-.927.101-.278.196-.31.474-.075.62.232.141.647.1.923-.102.277-.2.312-.475.08-.619zm2.758 2.808c-.367.405-.856.542-1.333.542-.186 0-.476-.025-.677-.114-.65-.274-.547-1.01-.457-1.42.09-.4.238-.819.558-1.127.446-.428 1.017-.453 1.256-.453.399 0 .783.093 1 .383.144.19.258.501.111 1.17-.045.2-.175.69-.458 1.019zm-1.37-.96c.11-.506.24-.93.571-.93.26 0 .279.315.163.822-.02.113-.115.532-.243.71-.09.132-.196.211-.313.211-.035 0-.242 0-.245-.32-.001-.157.03-.319.067-.494zm3.056 1.397l-.037.04c-.43-.008-.577-.008-1.073.02l-.022-.045c.082-.35.164-.703.243-1.053.208-.951.256-1.314.314-1.798l.037-.028.102-.015c.4-.058.539-.079 1.023-.18l.04.05-.075.303a4.43 4.43 0 01.262-.158c.245-.126.52-.163.671-.163.227 0 .48.066.587.342.097.245.03.547-.1 1.142l-.066.305a20.76 20.76 0 00-.231 1.238l-.05.04a11.06 11.06 0 00-1.052.02l-.019-.04.073-.319.06-.26.057-.265c.092-.41.18-.888.188-1.034v-.006c.01-.09.034-.3-.2-.3-.104 0-.207.05-.313.1l-.004.003c-.042.162-.12.543-.18.842l-.001.001v.002l-.055.267a28.086 28.086 0 00-.178.95zm4.5-4.26l-.342 1.55-.014.078h.187c.288 0 .568-.01.797-.129.277-.14.493-.432.567-.778.08-.379-.035-.67-.315-.782l-.726-.065-.137-.015-.005.061-.011.08zm1.8 2.891c-.09.403-.195 1.139.453 1.401.206.092.391.119.58.109.198-.011.382-.115.552-.264l-.046.184.03.04c.465-.02.61-.02 1.114-.017l.046-.036.009-.052c.07-.433.142-.87.326-1.698.093-.413.186-.822.282-1.233l-.015-.045c-.521.1-.66.122-1.162.196l-.038.032-.007.062-.008.06a.724.724 0 00-.365-.312c-.223-.091-.746.026-1.196.452-.316.305-.468.721-.555 1.121zm1.666-.892c-.332 0-.46.42-.571.917a2.2 2.2 0 00-.068.494c.007.314.212.314.245.314.117 0 .32-.078.405-.204a1.09 1.09 0 00.123-.258l.027-.11a21.918 21.918 0 00.137-.608c.023-.344-.088-.545-.298-.545zm5.143-.723l-.04-.048c-.516.109-.61.126-1.083.193l-.035.036v.003l-.002.006-.003.014-.002-.008c-.192.46-.276.616-.36.77-.07.129-.139.256-.27.56v-.041l-.002-.041-.072-1.444-.045-.048-.345.072c-.239.05-.344.072-.707.12l-.039.037a.193.193 0 00-.006.036.07.07 0 01-.003.02l.004.008c.049.261.05.27.079.52a67.514 67.514 0 00.08.654c.017.126.034.25.048.375l.022.19c.037.312.064.547.115 1.09-.141.242-.237.42-.324.584a9.587 9.587 0 01-.417.72l.002.005-.228.376c-.026.04-.05.066-.083.078a.332.332 0 01-.15.022h-.126l-.189.65.646.012c.378-.002.616-.186.745-.433l.405-.723h-.006l.042-.051c.273-.611 2.349-4.314 2.349-4.314zM23.98 16.23h.273l-.212.72h-.27l-.064.222h-.964l.066-.223h-1.956l.195-.666h.2l1.026-3.537.204-.713h.982l-.102.36s.261-.196.51-.263c.205-.057 1.219-.083 1.558-.09v-.003h1.05l.01.406c-.007.07.05.102.173.102h.213l-.195.67h-.567c-.49.037-.677-.182-.664-.429l-.01-.399-.107.359h-.336L23.98 16.23zm-.53-2.776c-.156.045-.449.182-.449.182l.26-.89h.78l-.188.649s-.24.014-.402.059zm-.391 1.342c.161-.038.406-.07.406-.07l.19-.649h-.784l-.27.927s.299-.158.458-.208zm-.03 1.442h-.783l.227-.782h.78l-.224.782zm3.012-2.16h-1.128l.192-.674h3.14l-.196.673h-1.053l-.164.546h1.056l-.175.597h-1.141l-.204.252h.464l.113.752.008.054c.006.046.01.079.028.103.024.026.163.04.244.04h.14l-.214.732h-.356c-.049 0-.118-.003-.212-.008l-.039-.001a.45.45 0 01-.197-.08.962.962 0 00-.057-.033.35.35 0 01-.186-.255l-.112-.75-.52.739c-.164.234-.387.412-.764.412h-.726l.19-.653h.278c.08 0 .15-.033.203-.061a.315.315 0 00.154-.133l.757-1.11h-1l.172-.597h1.143l.162-.546zM15.384 16.39l.264-.912h1.082l.198-.677h-1.084l.166-.561h1.058l.197-.656h-2.65l-.191.656h.601l-.16.56h-.604l-.2.69h.602l-.35 1.205c-.04.135.002.199.043.26a.81.81 0 01.023.035c.045.072.09.12.193.147.106.025.179.04.278.04h1.22l.217-.751-.54.077c-.105 0-.394-.013-.363-.114zm-.149-3.847l.274-.515h1.079l-.19.375h1.087l-.197.687h-1.485l-.16.144a.185.185 0 01-.098.057.354.354 0 00-.085.034c-.084.044-.26.131-.488.131h-.476l.192-.66h.143c.12 0 .203-.01.245-.038a.595.595 0 00.159-.215zm2.465 3.86c-.026-.038-.008-.105.031-.244l.406-1.396h1.443a9.53 9.53 0 00.46-.013.92.92 0 00.348-.122.66.66 0 00.252-.242 2.11 2.11 0 00.25-.587l.509-1.767-1.497.01s-.462.07-.665.148c-.204.087-.497.33-.497.33l.135-.484h-.925l-1.295 4.467a2.86 2.86 0 00-.084.375c-.002.072.077.143.14.2l.025.023c.06.047.144.052.23.056.024.001.048.002.072.005.115.009.28.014.506.014h.711l.219-.766-.637.063a.165.165 0 01-.137-.07zm2.215-2.583h-1.516l-.093.317h1.312c.104-.013.152-.006.177-.003.012.001.019.002.023 0l.097-.314zm-1.212-1.054h1.528l-.11.379s-.72-.008-.836.014a1.687 1.687 0 00-.804.374l.222-.767zm1.09 2.517a.168.168 0 00.06-.097l.09-.3h.706l-.086.425c-.037.133-.068.231-.165.317-.1.09-.22.183-.497.183l-.514.023-.004.479c-.004.108.017.121.036.133l.014.01c.023.024.044.033.066.043h.001l.163-.01.49-.027-.203.7h-.563c-.394 0-.686-.01-.781-.088-.095-.063-.108-.141-.106-.276l.036-1.87h.899l-.013.383h.216c.074 0 .124-.008.155-.028z" fill="#FEFEFE"/></svg>