<svg width="38" height="12" fill="none" xmlns="http://www.w3.org/2000/svg"><path fill-rule="evenodd" clip-rule="evenodd" d="M18.822.206l-2.45 11.284h-2.964L15.86.206h2.963zm12.466 7.286l1.56-4.237.897 4.237h-2.457zm3.305 3.998h2.74L34.941.206h-2.528c-.57 0-1.049.326-1.262.828L26.706 11.49h3.11l.618-1.686h3.801l.358 1.686zM26.86 7.806c.014-2.978-4.18-3.142-4.15-4.473.009-.405.4-.835 1.256-.945.424-.054 1.595-.097 2.921.505L27.407.5a8.069 8.069 0 00-2.771-.5c-2.929 0-4.99 1.534-5.007 3.73-.02 1.625 1.471 2.53 2.595 3.071 1.153.553 1.54.908 1.536 1.402-.009.758-.92 1.091-1.773 1.105-1.49.022-2.354-.397-3.043-.713l-.537 2.472c.692.313 1.97.586 3.295.6 3.113 0 5.149-1.515 5.158-3.861zM14.588.206l-4.8 11.284H6.656L4.294 2.485c-.144-.555-.268-.758-.704-.991C2.878 1.113 1.702.755.667.534l.07-.328h5.042c.642 0 1.22.421 1.366 1.15l1.247 6.53 3.084-7.68h3.112z" fill="url(#paint0_linear)"/><defs><linearGradient id="paint0_linear" x1=".667" y1="11.667" x2="37.334" y2="11.667" gradientUnits="userSpaceOnUse"><stop stop-color="#1D1C45"/><stop offset="1" stop-color="#174489"/></linearGradient></defs></svg>