<svg width="30" height="30" fill="none" xmlns="http://www.w3.org/2000/svg"><path d="M24.583 5.278c-.277-.834-1.11-1.39-1.944-1.39H7.36c-.972 0-1.667.556-1.944 1.39L2.5 13.61v11.111c0 .833.556 1.389 1.389 1.389h1.389c.833 0 1.389-.556 1.389-1.389v-1.389h16.666v1.389c0 .833.556 1.389 1.39 1.389h1.388c.833 0 1.389-.556 1.389-1.389v-11.11l-2.917-8.333zM7.361 19.166c-1.111 0-2.083-.972-2.083-2.083C5.278 15.972 6.25 15 7.36 15c1.111 0 2.083.972 2.083 2.083 0 1.111-.972 2.083-2.083 2.083zm15.278 0c-1.111 0-2.083-.972-2.083-2.083 0-1.111.972-2.083 2.083-2.083 1.111 0 2.083.972 2.083 2.083 0 1.111-.972 2.083-2.083 2.083zM5.278 12.222l2.083-6.25H22.64l2.083 6.25H5.278z" fill="#E0137B"/></svg>