<svg width="30" height="30" fill="none" xmlns="http://www.w3.org/2000/svg"><path fill-rule="evenodd" clip-rule="evenodd" d="M6.473 2.67a4.25 4.25 0 015.868-1.301c.863.55 1.905 1.653 2.66 2.802.753-1.15 1.796-2.252 2.659-2.802a4.25 4.25 0 114.567 7.169 5.124 5.124 0 01-.368.212H27.5c.69 0 1.25.56 1.25 1.25v2.375c0 .69-.56 1.25-1.25 1.25H16.125V8.75h-2.25v4.875H2.5c-.69 0-1.25-.56-1.25-1.25V10c0-.69.56-1.25 1.25-1.25h5.642a4.25 4.25 0 01-1.669-6.08zM2.5 15.875V25A2.5 2.5 0 005 27.5h8.875V15.875H2.5zM16.125 27.5H25a2.5 2.5 0 002.5-2.5v-9.125H16.125V27.5zM11.132 3.266a2 2 0 00-2.15 3.374c.548.349 1.75.77 2.945.92.587.072 1.095.069 1.467-.004a1.3 1.3 0 00.377-.124.365.365 0 00.067-.046l.014-.015s.004-.006.008-.02a.362.362 0 00.013-.079 1.308 1.308 0 00-.047-.394c-.091-.369-.302-.83-.617-1.332-.64-1.02-1.53-1.93-2.077-2.28zm10.498.613a2 2 0 00-2.762-.613c-.547.35-1.437 1.26-2.077 2.28-.314.501-.526.963-.617 1.332a1.31 1.31 0 00-.047.394.37.37 0 00.02.099c.001 0 .004.006.015.015a.32.32 0 00.067.046c.073.04.194.088.377.124.372.073.88.076 1.467.003 1.196-.148 2.397-.57 2.945-.92a2 2 0 00.612-2.76z" fill="#E0137B"/></svg>