<svg width="60" height="60" fill="none" xmlns="http://www.w3.org/2000/svg"><path d="M59 30c0 16.016-12.984 29-29 29S1 46.016 1 30 13.984 1 30 1s29 12.984 29 29z" stroke="#000" stroke-width="2"/><path fill-rule="evenodd" clip-rule="evenodd" d="M38 26h-3v-4H21c-1.1 0-2 .9-2 2v11h2c0 1.66 1.34 3 3 3s3-1.34 3-3h6c0 1.66 1.34 3 3 3s3-1.34 3-3h2v-5l-3-4zM24 36.5c-.83 0-1.5-.67-1.5-1.5s.67-1.5 1.5-1.5 1.5.67 1.5 1.5-.67 1.5-1.5 1.5zm13.5-9l1.96 2.5H35v-2.5h2.5zm-1.5 9c-.83 0-1.5-.67-1.5-1.5s.67-1.5 1.5-1.5 1.5.67 1.5 1.5-.67 1.5-1.5 1.5z" fill="#000"/></svg>