<svg width="24" height="24" fill="none" xmlns="http://www.w3.org/2000/svg"><path d="M12 24c6.627 0 12-5.373 12-12S18.627 0 12 0 0 5.373 0 12s5.373 12 12 12z" fill="#25D366"/><path fill-rule="evenodd" clip-rule="evenodd" d="M12.396 18.676h-.004a7.13 7.13 0 01-3.41-.868L5.2 18.8l1.012-3.698a7.123 7.123 0 01-.952-3.567c0-3.934 3.202-7.135 7.135-7.135 1.91 0 3.7.744 5.048 2.093a7.092 7.092 0 012.088 5.048c-.002 3.933-3.201 7.134-7.135 7.135zm-3.238-2.16l.216.128c.911.54 1.955.827 3.02.827h.002a5.94 5.94 0 005.93-5.93 5.895 5.895 0 00-1.735-4.197 5.89 5.89 0 00-4.193-1.739 5.94 5.94 0 00-5.933 5.93c0 1.121.313 2.213.906 3.157l.141.224-.599 2.189 2.245-.59zm6.588-3.44c.124.061.208.102.244.162.045.074.045.43-.104.847-.148.417-.86.797-1.203.848a2.444 2.444 0 01-1.123-.07 10.212 10.212 0 01-1.017-.376c-1.671-.722-2.8-2.342-3.014-2.648l-.031-.044-.002-.002c-.094-.126-.726-.97-.726-1.843 0-.821.403-1.251.589-1.45l.035-.037a.655.655 0 01.475-.223c.119 0 .238 0 .342.006h.04c.104 0 .233 0 .361.306.05.118.121.293.197.478.153.374.323.786.353.846.044.09.074.193.015.312a4.518 4.518 0 00-.025.051c-.045.091-.078.158-.154.247l-.091.11a3.073 3.073 0 01-.176.202c-.09.09-.182.185-.078.364.104.178.461.762.992 1.235.57.508 1.065.723 1.316.832.049.021.088.039.117.053.179.09.283.074.387-.044.104-.12.445-.521.564-.7.119-.178.238-.148.401-.089.164.06 1.04.491 1.219.58l.097.048z" fill="#FDFDFD"/></svg>