<svg width="477" height="109" fill="none" xmlns="http://www.w3.org/2000/svg"><path fill-rule="evenodd" clip-rule="evenodd" d="M31.7.5H109v108.4H.6V.5h31.1zm23.1 31.3c-7.6-7.6-19.8-7.6-27.4 0-7.6 7.6-7.6 19.8 0 27.4l27.4 27.3 27.3-27.3c7.6-7.6 7.6-19.8 0-27.4-7.5-7.5-19.7-7.5-27.3 0z" fill="#E23489"/><path fill-rule="evenodd" clip-rule="evenodd" d="M54.8 86.5L43.5 97.9v11H.6V54.7h23.5c.9 1.6 2 3.1 3.4 4.5l27.3 27.3z" fill="url(#paint0_linear)"/><path fill-rule="evenodd" clip-rule="evenodd" d="M167.1 22.9h-7.5v70.8h-8.7V22.9h-7.6v-7.4h23.8v7.4zm16.4-7.3v78.2h-8.7V15.6h8.7zm21.8 0c2.9 0 5.4 1 7.4 2.9 2.1 1.9 3.1 4.7 3.1 8.3v25.5c0 3.4-1 5.9-2.9 7.3-1.9 1.5-4.4 2.2-7.3 2.2h-4.3v32h-8.7V15.6h12.7zm1.7 12.5c0-3.4-.9-5.1-2.6-5.1h-3v31.5h3.4c1.5 0 2.2-1.6 2.2-4.9V28.1zm41.8 23.6v5.9h-24.1v-5.9h24.1zm31.5-28.8h-7.5v70.8h-8.7V22.9h-7.6v-7.4h23.8v7.4zm18.1 71.5c-1.3 0-2.5-.2-3.8-.7-1.3-.4-2.4-1.1-3.4-2-1-.9-1.8-2.1-2.4-3.5-.6-1.4-.9-3.1-.9-5.1V26.2c0-2 .3-3.7.9-5.1.6-1.4 1.4-2.6 2.4-3.5 1-.9 2.1-1.6 3.4-2 1.3-.4 2.5-.7 3.8-.7h2c1.3 0 2.5.2 3.8.7 1.3.4 2.4 1.1 3.4 2 1 .9 1.8 2 2.4 3.5.6 1.4.9 3.1.9 5.1v56.9c0 2-.3 3.7-.9 5.1-.6 1.4-1.4 2.6-2.4 3.5-1 .9-2.1 1.6-3.4 2-1.3.4-2.5.7-3.8.7h-2zm.8-72.1c-1.7 0-2.6 1.8-2.6 5.3v54.3c0 1.9.2 3.3.7 4.1.4.8 1.1 1.2 1.9 1.2h.4c.8 0 1.5-.4 1.9-1.2.4-.8.7-2.1.7-4.1V27.6c0-3.5-.9-5.3-2.6-5.3h-.4zm33.4-6.7c2.9 0 5.4 1 7.4 2.9 2.1 1.9 3.1 4.7 3.1 8.3v25.5c0 3.4-1 5.9-2.9 7.3-1.9 1.5-4.4 2.2-7.3 2.2h-4.3v32h-8.7V15.6h12.7zm1.7 12.5c0-3.4-.9-5.1-2.6-5.1h-3v31.5h3.4c1.5 0 2.2-1.6 2.2-4.9V28.1zm13.2 65.7v-11h-8.9v11h8.9zM372 47V27.4c0-1.9-.2-3.3-.7-4-.4-.7-1.1-1.1-1.9-1.1h-.4c-.8 0-1.5.4-1.9 1.2-.4.8-.7 2.1-.7 4.1V37c0 3.7.7 6.8 2.2 9.4 1.5 2.6 3.1 5.1 4.9 7.6 1.8 2.4 3.4 5 4.9 7.6 1.5 2.6 2.2 5.8 2.2 9.6v12.1c0 2-.3 3.7-.9 5.1-.6 1.4-1.4 2.6-2.3 3.5-1 .9-2.1 1.6-3.4 2-1.3.4-2.6.7-3.9.7h-1.7c-1.3 0-2.6-.2-3.9-.6-1.3-.4-2.4-1.1-3.5-2-1-.9-1.9-2.1-2.5-3.5-.6-1.4-1-3.1-1-5.1V62.5h7.9v19.6c0 1.9.3 3.3.9 4.1.6.8 1.3 1.2 2.1 1.2h.4c.8 0 1.5-.4 2.1-1.2.6-.8.8-2.1.8-4.1v-9.4c0-3.7-.7-6.8-2.2-9.4-1.5-2.6-3.1-5.1-4.9-7.6-1.8-2.4-3.4-5-4.9-7.6-1.5-2.6-2.2-5.8-2.2-9.6V26.4c0-2 .3-3.7 1-5.1.6-1.4 1.5-2.6 2.5-3.5 1-.9 2.1-1.6 3.4-2 1.3-.4 2.5-.7 3.8-.7h1.1c1.3 0 2.6.2 3.9.7 1.2.4 2.3 1.1 3.4 2 1 .9 1.8 2 2.4 3.5.6 1.4.9 3.1.9 5.1V47H372zm40.6-31.4v78.2h-8.7V58h-5.4v35.8h-8.7V15.6h8.7v35.9h5.4V15.6h8.7zm19.5 78.8c-1.3 0-2.5-.2-3.8-.7-1.3-.4-2.4-1.1-3.4-2-1-.9-1.8-2.1-2.4-3.5-.6-1.4-.9-3.1-.9-5.1V26.2c0-2 .3-3.7.9-5.1.6-1.4 1.4-2.6 2.4-3.5 1-.9 2.1-1.6 3.4-2 1.3-.4 2.5-.7 3.8-.7h2c1.3 0 2.5.2 3.8.7 1.3.4 2.4 1.1 3.4 2 1 .9 1.8 2 2.4 3.5.6 1.4.9 3.1.9 5.1v56.9c0 2-.3 3.7-.9 5.1-.6 1.4-1.4 2.6-2.4 3.5-1 .9-2.1 1.6-3.4 2-1.3.4-2.5.7-3.8.7h-2zm.8-72.1c-1.7 0-2.6 1.8-2.6 5.3v54.3c0 1.9.2 3.3.7 4.1.4.8 1.1 1.2 1.9 1.2h.4c.8 0 1.5-.4 1.9-1.2.4-.8.7-2.1.7-4.1V27.6c0-3.5-.9-5.3-2.6-5.3h-.4zm33.4-6.7c2.9 0 5.4 1 7.4 2.9 2.1 1.9 3.1 4.7 3.1 8.3v25.5c0 3.4-1 5.9-2.9 7.3-1.9 1.5-4.4 2.2-7.3 2.2h-4.3v32h-8.7V15.6h12.7zm1.7 12.5c0-3.4-.9-5.1-2.6-5.1h-3v31.5h3.4c1.5 0 2.2-1.6 2.2-4.9V28.1z" fill="#000"/><defs><linearGradient id="paint0_linear" x1="9.733" y1="59.629" x2="31.356" y2="105.298" gradientUnits="userSpaceOnUse"><stop stop-color="#E32D89"/><stop offset="1" stop-color="#AB005E"/></linearGradient></defs></svg>