<svg width="24" height="24" fill="none" xmlns="http://www.w3.org/2000/svg"><path fill-rule="evenodd" clip-rule="evenodd" d="M2 12C2 6.477 6.477 2 12 2s10 4.477 10 10-4.477 10-10 10S2 17.523 2 12zm5 5v1.655a8.284 8.284 0 0010 0V17c0-.92-.746-1.667-1.667-1.667H8.667C7.747 15.333 7 16.08 7 17zm11.665-.014a3.333 3.333 0 00-3.332-3.32H8.667a3.332 3.332 0 00-3.332 3.321A8.283 8.283 0 013.667 12a8.333 8.333 0 1116.666 0 8.278 8.278 0 01-1.668 4.986zM12 5.333A3.333 3.333 0 1012 12a3.333 3.333 0 000-6.667zm0 5A1.667 1.667 0 1112 7a1.667 1.667 0 010 3.333z" fill="#2D2017"/></svg>