<svg width="20" height="20" fill="none" xmlns="http://www.w3.org/2000/svg"><path fill-rule="evenodd" clip-rule="evenodd" d="M19.93 5.876c-.076-1.602-.442-3.02-1.615-4.19C17.145.516 15.727.15 14.125.07c-1.65-.093-6.6-.093-8.25 0-1.597.076-3.016.442-4.19 1.611C.512 2.851.151 4.27.07 5.871c-.093 1.652-.093 6.601 0 8.253.076 1.602.442 3.02 1.615 4.19 1.174 1.17 2.588 1.535 4.19 1.616 1.65.093 6.6.093 8.25 0 1.602-.076 3.02-.442 4.19-1.616 1.168-1.17 1.534-2.588 1.615-4.19.093-1.652.093-6.596 0-8.248zm-4.591-.017a1.196 1.196 0 100-2.392 1.196 1.196 0 000 2.392zm-5.337-.987A5.119 5.119 0 004.876 10a5.119 5.119 0 005.126 5.128A5.119 5.119 0 0015.13 10a5.12 5.12 0 00-5.127-5.128zm0 8.462A3.34 3.34 0 016.67 10a3.337 3.337 0 013.333-3.334A3.337 3.337 0 0113.335 10a3.34 3.34 0 01-3.333 3.334zm5.894 4.463a3.375 3.375 0 001.901-1.902c.448-1.125.423-3.587.407-5.182-.003-.265-.006-.506-.006-.713 0-.207.003-.448.006-.712.016-1.595.04-4.054-.407-5.183a3.375 3.375 0 00-1.9-1.902c-1.13-.445-3.603-.421-5.197-.406-.26.003-.495.005-.698.005-.207 0-.448-.003-.712-.005-1.595-.016-4.053-.041-5.182.407a3.375 3.375 0 00-1.9 1.9c-.446 1.13-.422 3.603-.407 5.198.003.26.005.495.005.698 0 .207-.003.448-.005.713-.016 1.594-.041 4.053.406 5.182a3.375 3.375 0 001.901 1.902c1.129.445 3.602.421 5.197.406.259-.003.494-.005.697-.005.207 0 .448.003.713.005 1.594.016 4.052.041 5.181-.406z" fill="#A9A8A8"/></svg>