<svg width="24" height="24" fill="none" xmlns="http://www.w3.org/2000/svg"><path fill-rule="evenodd" clip-rule="evenodd" d="M20 22.75a2.76 2.76 0 002.75-2.768v-3a2.758 2.758 0 00-2.376-2.788 12.16 12.16 0 01-2.668-.663 2.763 2.763 0 00-2.91.62l-.87.868a15.323 15.323 0 01-4.971-4.962l.864-.862a2.756 2.756 0 00.624-2.913 12.109 12.109 0 01-.662-2.654A2.762 2.762 0 007.019 1.25h-3.01a2.758 2.758 0 00-2.748 3.006 20.597 20.597 0 003.205 9.041 20.333 20.333 0 006.261 6.247 20.67 20.67 0 009 3.194c.1.009.186.012.272.012zm1.25-5.795v3.029a1.26 1.26 0 01-1.375 1.26 19.165 19.165 0 01-8.338-2.963 18.848 18.848 0 01-5.809-5.795A19.093 19.093 0 012.754 4.11 1.256 1.256 0 014.01 2.75h3.017a1.263 1.263 0 011.269 1.081c.134 1.013.384 2.014.744 2.978.173.46.063.978-.283 1.327L7.482 9.408a.75.75 0 00-.122.902 16.823 16.823 0 006.315 6.303.75.75 0 00.9-.122l1.277-1.274a1.263 1.263 0 011.329-.28c.967.36 1.97.609 2.99.743a1.257 1.257 0 011.079 1.275z" fill="#2D2017"/></svg>