<svg width="20" height="11" fill="none" xmlns="http://www.w3.org/2000/svg"><path fill-rule="evenodd" clip-rule="evenodd" d="M19.894 9.934a1.332 1.332 0 00-.068-.126c-.347-.602-1.01-1.341-1.989-2.218l-.02-.02-.01-.01-.011-.01h-.01c-.445-.408-.726-.682-.844-.823-.216-.268-.264-.539-.146-.813.083-.208.396-.646.937-1.315.285-.355.51-.64.677-.853 1.201-1.54 1.722-2.524 1.562-2.952l-.062-.1c-.042-.06-.15-.115-.323-.165-.174-.05-.395-.059-.666-.026l-3 .02a.399.399 0 00-.208.006l-.135.03-.052.025-.042.03a.472.472 0 00-.114.105.689.689 0 00-.104.176c-.327.81-.698 1.563-1.115 2.259a21.25 21.25 0 01-.707 1.079 5.233 5.233 0 01-.542.672c-.146.144-.278.26-.396.347-.118.087-.208.123-.27.11a7.797 7.797 0 01-.178-.04.68.68 0 01-.234-.246 1.08 1.08 0 01-.12-.392 4.238 4.238 0 01-.03-.888c.006-.208.01-.348.01-.422 0-.254.005-.53.015-.828l.026-.708c.007-.174.01-.358.01-.552 0-.194-.012-.346-.036-.457a1.531 1.531 0 00-.109-.32.545.545 0 00-.213-.242 1.235 1.235 0 00-.35-.135c-.367-.08-.836-.124-1.405-.13C8.33-.013 7.5.067 7.133.241a1.389 1.389 0 00-.395.301c-.126.148-.143.228-.053.241.417.06.712.205.885.432l.063.12c.049.087.097.241.146.462.048.221.08.465.093.733a7.46 7.46 0 010 1.255c-.034.348-.067.619-.099.813a1.58 1.58 0 01-.14.472 1.95 1.95 0 01-.125.22.174.174 0 01-.052.05.804.804 0 01-.282.05c-.097 0-.215-.046-.353-.14a2.462 2.462 0 01-.433-.386 5.166 5.166 0 01-.505-.688A11.934 11.934 0 015.3 3.133l-.166-.29a24.81 24.81 0 01-.427-.819c-.181-.358-.34-.705-.48-1.04a.663.663 0 00-.25-.32l-.051-.03a.736.736 0 00-.167-.086 1.16 1.16 0 00-.24-.065L.667.503c-.291 0-.489.064-.593.19L.03.754A.314.314 0 000 .916c0 .073.02.164.062.27.417.944.87 1.854 1.36 2.73a30.4 30.4 0 001.275 2.119c.36.535.729 1.04 1.104 1.516.374.475.623.78.744.913.122.134.217.235.287.301l.26.241c.167.16.411.353.734.577.323.224.68.445 1.072.663.393.217.85.395 1.37.532a4.91 4.91 0 001.52.166h1.198c.243-.02.427-.094.552-.221l.041-.05a.645.645 0 00.078-.186.981.981 0 00.037-.276 3.212 3.212 0 01.067-.778c.052-.23.112-.405.177-.522a1.298 1.298 0 01.402-.441.643.643 0 01.083-.035c.166-.054.362-.002.588.155.226.157.438.351.635.583.198.23.436.49.714.777.277.288.52.502.729.643l.208.12c.139.08.32.154.542.221a1.2 1.2 0 00.583.05l2.665-.04c.264 0 .47-.042.615-.125.145-.084.232-.176.26-.277.028-.1.03-.214.005-.341a1.189 1.189 0 00-.073-.266z" fill="#A9A8A8"/></svg>